<svg width="185" height="34" viewBox="0 0 185 34" fill="none" xmlns="http://www.w3.org/2000/svg">
<g clip-path="url(#clip0)">
<path d="M69.3056 22.3628H69.2696C68.9583 22.2386 68.6126 22.2313 68.2964 22.3422C67.9801 22.4531 67.7148 22.6748 67.5493 22.9663V23.0023C67.3036 23.4868 66.9238 23.8904 66.4551 24.1651C65.9864 24.4398 65.4486 24.5739 64.9059 24.5514C64.3624 24.5778 63.823 24.4454 63.3536 24.1703C62.8841 23.8952 62.505 23.4893 62.2624 23.0023C62.1562 22.7682 61.9853 22.5692 61.7699 22.4288C61.5546 22.2884 61.3036 22.2124 61.0465 22.2097C60.8743 22.204 60.7028 22.2331 60.5421 22.2953C60.381 22.3588 60.2343 22.4542 60.1108 22.5758C59.9874 22.6973 59.8897 22.8426 59.8237 23.0028C59.7577 23.1629 59.7247 23.3348 59.7266 23.5081C59.7286 23.6813 59.7655 23.8524 59.8351 24.011C60.2821 24.9794 61.0043 25.7948 61.9117 26.3553C62.819 26.9159 63.8713 27.197 64.9374 27.1633C65.9858 27.183 67.018 26.9032 67.913 26.3568C68.808 25.8104 69.5285 25.0201 69.9901 24.0786C70.0603 23.9213 70.0983 23.7516 70.1018 23.5794C70.1053 23.4072 70.0742 23.236 70.0104 23.0761C69.9466 22.9161 69.8513 22.7705 69.7303 22.648C69.6092 22.5255 69.4648 22.4285 69.3056 22.3628V22.3628Z" fill="#0392CF"/>
<path d="M74.5753 0.285002C74.3094 0.283407 74.0458 0.334747 73.8 0.436029C73.5541 0.537312 73.3309 0.686512 73.1433 0.874935C72.9532 1.06132 72.8029 1.28434 72.7015 1.53049C72.6001 1.77663 72.5497 2.0408 72.5533 2.30699V13.1375C70.282 11.1441 67.337 10.0901 64.3166 10.1897C61.2962 10.2892 58.427 11.5348 56.2919 13.6733C55.2891 14.6676 54.4717 15.8326 53.8781 17.1139C53.2814 15.827 52.4594 14.6572 51.4508 13.6598C50.3482 12.5547 49.0384 11.678 47.5964 11.0798C46.1545 10.4816 44.6087 10.1737 43.0476 10.1737C41.4865 10.1737 39.9407 10.4816 38.4988 11.0798C37.0569 11.678 35.7471 12.5547 34.6444 13.6598C33.9909 14.3147 33.4097 15.0379 32.9107 15.8169C32.429 14.7426 31.7543 13.7657 30.9202 12.9348C30.0547 12.0452 29.0169 11.3416 27.8701 10.8669C26.7233 10.3923 25.4918 10.1566 24.2508 10.1743C23.0059 10.1561 21.7704 10.3929 20.6203 10.8699C19.4702 11.347 18.4299 12.0543 17.5634 12.9483C17.2977 13.2185 17.059 13.4887 16.8248 13.7769C16.5862 13.4887 16.3745 13.2185 16.0818 12.9483C15.2121 12.0644 14.1734 11.3645 13.0276 10.8903C11.8818 10.416 10.6524 10.1771 9.41238 10.1878C7.47522 10.1617 5.58087 10.7584 4.00841 11.89C3.94924 11.4782 3.75431 11.0978 3.4545 10.8092C3.2678 10.6196 3.04472 10.4696 2.79865 10.3682C2.55257 10.2668 2.28857 10.2162 2.02245 10.2193C1.75651 10.2175 1.49288 10.2687 1.24698 10.37C1.00108 10.4713 0.777866 10.6206 0.590394 10.8092C0.398741 10.9916 0.247275 11.212 0.14569 11.4562C0.0441056 11.7005 -0.00535998 11.9633 0.000459965 12.2278V31.9478C-0.00113451 32.2137 0.0502052 32.4772 0.151488 32.7231C0.25277 32.969 0.40197 33.1922 0.590394 33.3798C0.776781 33.5699 0.999797 33.7202 1.24594 33.8216C1.49209 33.923 1.75626 33.9734 2.02245 33.9698C2.28835 33.9714 2.55191 33.92 2.79777 33.8187C3.04363 33.7175 3.26688 33.5683 3.4545 33.3798C3.64579 33.1939 3.79747 32.9712 3.9004 32.7251C4.00333 32.4789 4.05539 32.2145 4.05344 31.9478V19.6177C4.04169 18.9089 4.17596 18.2053 4.44789 17.5506C4.71983 16.896 5.12361 16.3043 5.6341 15.8124C6.12564 15.3015 6.71726 14.8974 7.372 14.6255C8.02674 14.3535 8.73053 14.2195 9.4394 14.2318C10.1489 14.2197 10.8533 14.3537 11.5088 14.6257C12.1642 14.8976 12.7567 15.3016 13.2492 15.8124C13.7597 16.3043 14.1635 16.896 14.4354 17.5506C14.7074 18.2053 14.8416 18.9089 14.8299 19.6177V31.9478C14.8283 32.2137 14.8796 32.4772 14.9809 32.7231C15.0822 32.969 15.2314 33.1922 15.4198 33.3798C15.6062 33.5699 15.8292 33.7202 16.0754 33.8216C16.3215 33.923 16.5857 33.9734 16.8519 33.9698C17.1178 33.9714 17.3813 33.92 17.6272 33.8187C17.873 33.7175 18.0963 33.5683 18.2839 33.3798C18.4736 33.1931 18.6236 32.9701 18.725 32.724C18.8263 32.4779 18.877 32.2139 18.8738 31.9478V19.6177C18.8738 18.1845 19.4432 16.81 20.4566 15.7965C21.4701 14.7831 22.8446 14.2137 24.2778 14.2137C25.711 14.2137 27.0856 14.7831 28.099 15.7965C29.1124 16.81 29.6818 18.1845 29.6818 19.6177V31.9478C29.6802 32.2137 29.7315 32.4772 29.8328 32.7231C29.9341 32.969 30.0833 33.1922 30.2717 33.3798C30.4584 33.5695 30.6815 33.7195 30.9276 33.8209C31.1736 33.9223 31.4377 33.9729 31.7038 33.9698C31.9697 33.9714 32.2332 33.92 32.4791 33.8187C32.725 33.7175 32.9482 33.5683 33.1358 33.3798C33.3255 33.1931 33.4755 32.9701 33.5769 32.724C33.6782 32.4779 33.7289 32.2139 33.7258 31.9478V29.4214C34.0257 29.7973 34.3459 30.1566 34.685 30.4977C36.8019 32.6189 39.6421 33.8621 42.6366 33.9782C45.6312 34.0942 48.5591 33.0747 50.8338 31.1237V31.1237C51.02 30.9353 51.1666 30.7115 51.2648 30.4656C51.3631 30.2196 51.411 29.9564 51.4058 29.6916C51.4074 29.4257 51.356 29.1622 51.2547 28.9163C51.1535 28.6704 51.0043 28.4472 50.8158 28.2596C50.6301 28.0698 50.4079 27.9197 50.1625 27.8183C49.9171 27.7169 49.6538 27.6663 49.3883 27.6696C48.9318 27.67 48.4877 27.8185 48.1229 28.093V28.093C46.7295 29.3203 44.9266 29.9807 43.0701 29.9438C41.3405 29.9423 39.6592 29.3731 38.2843 28.3237C36.9095 27.2743 35.9171 25.8025 35.4595 24.1345H53.0225C53.3931 26.2817 54.3467 28.2858 55.7791 29.9278C57.2115 31.5697 59.0676 32.7865 61.1446 33.445C63.2217 34.1036 65.4398 34.1787 67.5566 33.6621C69.6734 33.1455 71.6076 32.0571 73.1478 30.5157C74.269 29.4252 75.1563 28.1177 75.7556 26.673C76.3548 25.2282 76.6535 23.6765 76.6333 22.1126V2.29798C76.6352 2.03204 76.5839 1.76841 76.4826 1.52251C76.3813 1.27662 76.232 1.0534 76.0434 0.865929C75.8532 0.67141 75.6242 0.519143 75.3712 0.419049C75.1183 0.318955 74.8471 0.27328 74.5753 0.285002V0.285002ZM64.7085 29.9258C63.6755 29.9312 62.6517 29.7315 61.6963 29.3384C60.741 28.9453 59.8731 28.3665 59.1431 27.6356C58.413 26.9047 57.8352 26.0362 57.4432 25.0804C57.0512 24.1246 56.8527 23.1006 56.8593 22.0675C56.8615 20.7769 57.182 19.5067 57.7923 18.3695C58.4026 17.2323 59.2839 16.2631 60.3582 15.5477C61.4325 14.8324 62.6666 14.393 63.9512 14.2685C65.2358 14.144 66.5313 14.3381 67.723 14.8338C68.9147 15.3295 69.9657 16.1113 70.7831 17.1102C71.6005 18.109 72.1589 19.294 72.409 20.5601C72.6591 21.8263 72.5931 23.1346 72.2169 24.3692C71.8407 25.6038 71.1658 26.7266 70.2521 27.6381C69.5296 28.3729 68.6662 28.9543 67.7137 29.3474C66.7611 29.7405 65.739 29.9372 64.7085 29.9258V29.9258ZM43.0296 14.2453C44.7602 14.2475 46.4423 14.8175 47.8178 15.8676C49.1934 16.9178 50.1864 18.3902 50.6447 20.059H35.437C35.8922 18.3928 36.8814 16.9218 38.2528 15.8717C39.6243 14.8216 41.3023 14.2502 43.0296 14.2453V14.2453Z" fill="#0392CF"/>
<path d="M82.8217 12.3888C84.3638 11.2375 86.1805 10.5103 88.0909 10.2796C90.0014 10.0489 91.939 10.3227 93.7108 11.0738C95.0342 11.6368 96.2419 12.4399 97.2729 13.4426C98.2984 14.4523 99.1209 15.6492 99.6957 16.9686C100.295 18.3309 100.602 19.8037 100.596 21.2918V31.771C100.596 32.3598 100.362 32.9245 99.9461 33.3409C99.5297 33.7573 98.965 33.9912 98.3762 33.9912C97.7874 33.9912 97.2227 33.7573 96.8063 33.3409C96.39 32.9245 96.1561 32.3598 96.1561 31.771V21.2918C96.1587 20.4072 95.9778 19.5316 95.6247 18.7204C94.9348 17.1302 93.6663 15.8616 92.0761 15.1718C91.261 14.8241 90.384 14.6449 89.4979 14.6449C88.6118 14.6449 87.7348 14.8241 86.9198 15.1718C85.3234 15.8572 84.0525 17.1314 83.3712 18.7294C83.0246 19.5422 82.8483 20.4173 82.8533 21.3008V31.771C82.8668 32.0713 82.8193 32.3712 82.7137 32.6526C82.6081 32.934 82.4466 33.1911 82.2389 33.4084C82.0312 33.6256 81.7817 33.7985 81.5053 33.9167C81.2289 34.0348 80.9315 34.0957 80.6309 34.0957C80.3303 34.0957 80.0329 34.0348 79.7565 33.9167C79.4801 33.7985 79.2305 33.6256 79.0228 33.4084C78.8151 33.1911 78.6536 32.934 78.548 32.6526C78.4424 32.3712 78.395 32.0713 78.4085 31.771V12.4338C78.4047 12.1409 78.4601 11.8503 78.5716 11.5794C78.683 11.3085 78.8481 11.063 79.057 10.8577C79.2627 10.6485 79.5081 10.4824 79.7787 10.369C80.0493 10.2557 80.3397 10.1973 80.6331 10.1973C80.9265 10.1973 81.217 10.2557 81.4876 10.369C81.7582 10.4824 82.0035 10.6485 82.2093 10.8577C82.4149 11.056 82.5784 11.2939 82.6898 11.557C82.8013 11.8201 82.8584 12.103 82.8578 12.3888" fill="#0392CF"/>
<path d="M124.446 17.523C123.521 15.3607 121.985 13.5157 120.025 12.2148C118.066 10.9139 115.769 10.2139 113.417 10.2006C111.851 10.176 110.296 10.4725 108.848 11.072C107.401 11.6715 106.091 12.5612 105.001 13.6862C103.876 14.7767 102.986 16.0861 102.386 17.5337C101.787 18.9812 101.49 20.5363 101.515 22.1029C101.49 23.6689 101.787 25.2233 102.386 26.6702C102.986 28.117 103.876 29.4256 105.001 30.5151C107.127 32.6449 109.982 33.8902 112.99 34.0005C115.998 34.1108 118.936 33.0778 121.213 31.1095C121.421 30.9012 121.584 30.653 121.694 30.3799C121.804 30.1067 121.858 29.8142 121.852 29.5198C121.862 29.2268 121.812 28.9347 121.704 28.6619C121.597 28.3891 121.434 28.1413 121.227 27.934C121.019 27.7266 120.772 27.5641 120.499 27.4566C120.226 27.349 119.934 27.2987 119.641 27.3087C119.103 27.3174 118.584 27.5115 118.173 27.8581C117.533 28.4109 116.8 28.8441 116.007 29.1371C115.181 29.428 114.311 29.5713 113.435 29.5604C112.63 29.5637 111.83 29.4344 111.067 29.1776C110.321 28.9282 109.618 28.5668 108.982 28.1058C108.35 27.6432 107.795 27.0839 107.338 26.4486C106.869 25.8026 106.511 25.0826 106.28 24.3185H123.108C123.401 24.3255 123.692 24.2737 123.964 24.1662C124.237 24.0587 124.485 23.8976 124.694 23.6926C124.906 23.489 125.074 23.2431 125.185 22.9709C125.297 22.6986 125.35 22.406 125.342 22.1119C125.35 20.5381 125.045 18.9784 124.446 17.523V17.523ZM107.297 17.7572C107.758 17.1205 108.318 16.5611 108.955 16.1C109.596 15.6357 110.306 15.2727 111.058 15.0237C111.819 14.7709 112.615 14.6416 113.417 14.6409C114.215 14.6409 115.007 14.7702 115.764 15.0237C117.264 15.5245 118.572 16.4798 119.506 17.7572C119.981 18.4031 120.344 19.1248 120.578 19.8918H106.28C106.492 19.1264 106.836 18.404 107.297 17.7572V17.7572Z" fill="#0392CF"/>
<path d="M139.328 4.46394C135.425 4.46394 133.474 6.41538 133.474 10.3182V11.4216H137.747C138.185 11.4248 138.612 11.5571 138.975 11.8021C139.338 12.047 139.621 12.3936 139.788 12.7985C139.955 13.2034 139.998 13.6485 139.913 14.0781C139.828 14.5076 139.618 14.9026 139.31 15.2133C139.108 15.4224 138.864 15.5879 138.596 15.6994C138.327 15.8109 138.038 15.8662 137.747 15.8618H133.474V31.79C133.476 32.0821 133.42 32.3717 133.307 32.6412C133.201 32.9037 133.049 33.1449 132.857 33.3527C132.657 33.5591 132.418 33.723 132.154 33.8345C131.594 34.0569 130.971 34.0569 130.411 33.8345C130.142 33.7246 129.899 33.5606 129.695 33.3527C129.502 33.1459 129.349 32.9045 129.245 32.6412C129.129 32.3726 129.071 32.0826 129.074 31.79V15.8528H128.052C127.759 15.8617 127.467 15.8099 127.195 15.7006C126.923 15.5913 126.676 15.427 126.471 15.2179C126.265 15.0079 126.103 14.7584 125.996 14.4845C125.888 14.2106 125.837 13.9178 125.845 13.6237C125.835 13.331 125.885 13.0394 125.992 12.7669C126.1 12.4944 126.262 12.2468 126.469 12.0395C126.676 11.8322 126.923 11.6696 127.195 11.5618C127.467 11.4539 127.759 11.4031 128.052 11.4126H129.074V10.3092C129.053 3.43719 132.471 0.00866734 139.328 0.0236784C139.619 0.0193026 139.908 0.0745854 140.176 0.186117C140.445 0.297648 140.688 0.463062 140.891 0.672155C141.102 0.876265 141.269 1.12219 141.381 1.39431C141.493 1.66642 141.546 1.95878 141.539 2.25282C141.545 2.54735 141.491 2.84001 141.379 3.11267C141.268 3.38533 141.101 3.6322 140.891 3.83798C140.688 4.04708 140.445 4.21249 140.176 4.32402C139.908 4.43555 139.619 4.49084 139.328 4.48646" fill="#0392CF"/>
<path d="M147.66 6.98471C147.675 7.33714 147.618 7.68889 147.493 8.01881C147.369 8.34873 147.178 8.65002 146.934 8.90455C146.69 9.15909 146.397 9.36163 146.072 9.49998C145.748 9.63834 145.399 9.70966 145.046 9.70966C144.693 9.70966 144.344 9.63834 144.02 9.49998C143.695 9.36163 143.402 9.15909 143.158 8.90455C142.914 8.65002 142.724 8.34873 142.599 8.01881C142.474 7.68889 142.417 7.33714 142.432 6.98471C142.417 6.63229 142.474 6.28054 142.599 5.95062C142.724 5.6207 142.914 5.31941 143.158 5.06487C143.402 4.81034 143.695 4.6078 144.02 4.46944C144.344 4.33109 144.693 4.25977 145.046 4.25977C145.399 4.25977 145.748 4.33109 146.072 4.46944C146.397 4.6078 146.69 4.81034 146.934 5.06487C147.178 5.31941 147.369 5.6207 147.493 5.95062C147.618 6.28054 147.675 6.63229 147.66 6.98471V6.98471ZM142.837 31.7529V13.6451C142.831 13.3506 142.885 13.0579 142.997 12.7853C143.109 12.5126 143.275 12.2657 143.486 12.0599C143.691 11.8543 143.934 11.6912 144.202 11.5799C144.471 11.4686 144.758 11.4113 145.048 11.4113C145.339 11.4113 145.626 11.4686 145.894 11.5799C146.162 11.6912 146.406 11.8543 146.611 12.0599C146.818 12.2682 146.983 12.5155 147.094 12.7876C147.205 13.0597 147.261 13.3511 147.259 13.6451V31.7709C147.259 32.0654 147.199 32.3569 147.085 32.6282C146.971 32.8996 146.803 33.1455 146.593 33.3516C146.283 33.6616 145.887 33.8723 145.457 33.9569C145.026 34.0415 144.581 33.9962 144.176 33.8268C143.771 33.6573 143.426 33.3714 143.185 33.0053C142.943 32.6392 142.816 32.2095 142.819 31.7709" fill="#0392CF"/>
<path d="M150.711 11.4119H153.166V2.21159C153.161 1.92064 153.217 1.63188 153.328 1.36312C153.44 1.09436 153.605 0.851306 153.814 0.648943C154.02 0.438135 154.267 0.27181 154.539 0.160266C154.812 0.0487224 155.105 -0.00566662 155.399 0.000466584C155.69 -0.00382546 155.978 0.051514 156.246 0.163058C156.514 0.274603 156.756 0.439978 156.957 0.648943C157.168 0.850532 157.335 1.09324 157.448 1.36204C157.561 1.63083 157.618 1.91999 157.615 2.21159V11.4119H160.272C160.561 11.4071 160.849 11.4623 161.116 11.5738C161.384 11.6854 161.625 11.8511 161.825 12.0603C162.238 12.4812 162.469 13.0471 162.469 13.6365C162.469 14.2259 162.238 14.7918 161.825 15.2127C161.625 15.4219 161.384 15.5876 161.116 15.6991C160.849 15.8107 160.561 15.8659 160.272 15.8611H157.615V25.3181C157.615 28.1372 159.032 29.5467 161.866 29.5467C162.156 29.5419 162.443 29.5971 162.711 29.7087C162.978 29.8203 163.219 29.9859 163.42 30.1952C163.832 30.6161 164.063 31.182 164.063 31.7713C164.063 32.3607 163.832 32.9266 163.42 33.3475C163.219 33.5568 162.978 33.7224 162.711 33.834C162.443 33.9456 162.156 34.0007 161.866 33.996C156.069 33.996 153.172 31.1063 153.175 25.3271V15.8701H150.72C150.433 15.873 150.148 15.817 149.883 15.7054C149.618 15.5939 149.379 15.4293 149.18 15.2217C148.762 14.8036 148.527 14.2367 148.527 13.6455C148.527 13.0543 148.762 12.4874 149.18 12.0693C149.379 11.8617 149.618 11.6971 149.883 11.5856C150.148 11.474 150.433 11.418 150.72 11.4209" fill="#0392CF"/>
<path d="M169.401 22.6734C168.372 22.3384 167.419 21.8044 166.596 21.1017H166.623C166.107 20.6034 165.698 20.0056 165.42 19.3446C165.142 18.6835 165.001 17.973 165.006 17.2559C164.995 16.2178 165.295 15.2 165.866 14.3333C166.457 13.4473 167.224 12.6918 168.118 12.1131C169.079 11.4865 170.13 11.0097 171.234 10.6991C172.362 10.3694 173.531 10.2011 174.706 10.1992C178.252 10.1992 181.29 11.6238 183.821 14.4729C184.129 14.8543 184.289 15.334 184.271 15.8239C184.276 16.1155 184.221 16.4051 184.11 16.675C183.999 16.9449 183.835 17.1895 183.627 17.3941C183.419 17.5987 183.172 17.759 182.9 17.8653C182.629 17.9716 182.338 18.0216 182.047 18.0125C181.628 18.0233 181.219 17.8879 180.889 17.6297C180.565 17.3706 180.256 17.0939 179.962 16.8011C179.278 16.0985 178.458 15.5435 177.552 15.1702C176.646 14.7969 175.673 14.6132 174.693 14.6305C172.651 14.6305 171.023 15.2549 169.807 16.5039C169.689 16.6274 169.597 16.7739 169.538 16.9343C169.48 17.0947 169.454 17.2655 169.464 17.436C169.454 17.6134 169.502 17.7893 169.603 17.9361C169.703 18.0828 169.849 18.192 170.018 18.2466L179.962 21.516C181.353 22.0564 182.285 22.5788 182.767 23.0877C183.282 23.5871 183.691 24.1858 183.968 24.8476C184.245 25.5094 184.385 26.2206 184.379 26.938C184.393 27.9794 184.093 29.0007 183.519 29.8697C182.926 30.7535 182.16 31.5086 181.268 32.0898C180.314 32.721 179.267 33.1982 178.165 33.5039C177.038 33.8251 175.873 33.9888 174.702 33.9902C171.129 33.9902 168.091 32.5807 165.587 29.7616C165.285 29.365 165.126 28.8776 165.137 28.3791C165.127 28.0864 165.178 27.7949 165.286 27.5226C165.394 27.2503 165.556 27.0031 165.764 26.7962C165.971 26.5893 166.219 26.4272 166.491 26.3199C166.764 26.2126 167.055 26.1625 167.348 26.1725C167.782 26.1602 168.205 26.3076 168.537 26.5868C168.861 26.86 169.161 27.1257 169.437 27.3839C170.125 28.0869 170.949 28.6417 171.859 29.0142C172.769 29.3867 173.746 29.5691 174.729 29.55C175.632 29.5893 176.533 29.4393 177.374 29.1097C178.216 28.7801 178.979 28.2781 179.615 27.636C179.829 27.3979 179.943 27.0868 179.935 26.7669C179.943 26.5852 179.892 26.4055 179.789 26.2558C179.686 26.106 179.536 25.9944 179.363 25.9383L169.401 22.6734Z" fill="#0392CF"/>
</g>
<defs>
<clipPath id="clip0">
<rect width="184.361" height="34" fill="white"/>
</clipPath>
</defs>
</svg>
